<svg width="164" height="108" viewBox="0 0 164 108" fill="none" xmlns="http://www.w3.org/2000/svg">
<path d="M64.6711 74.5564L64.3818 74.2671C61.3445 71.1655 59.2232 68.4013 58.0179 65.9746C56.8126 63.548 56.2099 61.2097 56.2099 58.9598C56.2099 56.7099 56.5233 54.3235 57.1501 51.8004C57.5197 50.2737 57.6884 48.7389 57.6563 47.1961C57.6081 45.6373 57.2786 44.1186 56.6679 42.6401C56.0733 41.1456 55.1412 39.7635 53.8717 38.4939C52.2967 36.919 50.5611 35.9226 48.6648 35.5048C46.7685 35.0869 44.8882 35.1834 43.024 35.794C41.1598 36.4047 39.4724 37.4654 37.9618 38.976C36.644 40.2938 35.6476 41.8366 34.9726 43.6044C34.2977 45.3721 34.137 47.2524 34.4905 49.2451C34.8441 51.2379 35.9047 53.2467 37.6725 55.2716L31.5978 61.3463C28.9944 58.4857 27.3632 55.4404 26.7043 52.2102C26.0615 48.9639 26.2865 45.7659 27.3793 42.616C28.4881 39.4501 30.3443 36.5654 32.9477 33.962C35.7762 31.1336 38.7974 29.2372 42.0116 28.273C45.2417 27.2927 48.4077 27.2123 51.5093 28.0319C54.627 28.8355 57.4393 30.4907 59.9464 32.9978C61.7141 34.7655 63.0399 36.6378 63.9238 38.6144C64.8238 40.5751 65.33 42.6241 65.4425 44.7614C65.5711 46.8828 65.3621 49.0844 64.8157 51.3665C64.2854 53.6646 64.0845 55.7296 64.2131 57.5617C64.3256 59.3777 64.8559 61.1454 65.8041 62.865C66.7523 64.5845 68.2066 66.4568 70.1673 68.4817L70.4565 68.7709L64.6711 74.5564ZM82.0274 85.7415C80.8381 86.9307 79.3918 87.5253 77.6883 87.5253C75.9848 87.5253 74.5385 86.9307 73.3492 85.7415C72.16 84.5523 71.5654 83.1059 71.5654 81.4024C71.5654 79.6989 72.16 78.2526 73.3492 77.0634C74.5385 75.8741 75.9848 75.2795 77.6883 75.2795C79.3918 75.2795 80.8381 75.8741 82.0274 77.0634C82.8148 77.8508 83.3371 78.7749 83.5943 79.8355C83.8675 80.8801 83.8755 81.9328 83.6184 82.9934C83.3612 84.0219 82.8309 84.938 82.0274 85.7415Z" fill="#FD8321"/>
<path d="M90.5455 75.8182V61.9773H90.2045C89.9091 62.4545 89.4886 63.0568 88.9432 63.7841C88.3977 64.5 87.6193 65.142 86.608 65.7102C85.5966 66.267 84.25 66.5455 82.5682 66.5455C80.3864 66.5455 78.4602 65.9943 76.7898 64.892C75.1193 63.7784 73.8125 62.2102 72.8693 60.1875C71.9261 58.1534 71.4545 55.75 71.4545 52.9773C71.4545 50.2273 71.9261 47.8409 72.8693 45.8182C73.8125 43.7955 75.125 42.233 76.8068 41.1307C78.4886 40.0284 80.4318 39.4773 82.6364 39.4773C84.3409 39.4773 85.6875 39.7614 86.6761 40.3295C87.6761 40.8864 88.4375 41.5227 88.9602 42.2386C89.4943 42.9432 89.9091 43.5227 90.2045 43.9773H90.6818V39.8182H94.5682V75.8182H90.5455ZM83.1136 62.9318C84.7273 62.9318 86.0909 62.5114 87.2045 61.6705C88.3182 60.8182 89.1648 59.642 89.7443 58.142C90.3239 56.6307 90.6136 54.8864 90.6136 52.9091C90.6136 50.9545 90.3295 49.2443 89.7614 47.7784C89.1932 46.3011 88.3523 45.1534 87.2386 44.3352C86.125 43.5057 84.75 43.0909 83.1136 43.0909C81.4091 43.0909 79.9886 43.5284 78.8523 44.4034C77.7273 45.267 76.8807 46.4432 76.3125 47.9318C75.7557 49.4091 75.4773 51.0682 75.4773 52.9091C75.4773 54.7727 75.7614 56.4659 76.3295 57.9886C76.9091 59.5 77.7614 60.7045 78.8864 61.6023C80.0227 62.4886 81.4318 62.9318 83.1136 62.9318ZM118.432 55.2955V39.8182H122.455V66H118.432V61.5682H118.159C117.545 62.8977 116.591 64.0284 115.295 64.9602C114 65.8807 112.364 66.3409 110.386 66.3409C108.75 66.3409 107.295 65.983 106.023 65.267C104.75 64.5398 103.75 63.4489 103.023 61.9943C102.295 60.5284 101.932 58.6818 101.932 56.4545V39.8182H105.955V56.1818C105.955 58.0909 106.489 59.6136 107.557 60.75C108.636 61.8864 110.011 62.4545 111.682 62.4545C112.682 62.4545 113.699 62.1989 114.733 61.6875C115.778 61.1761 116.653 60.392 117.358 59.3352C118.074 58.2784 118.432 56.9318 118.432 55.2955ZM129.822 66V39.8182H133.845V66H129.822ZM131.868 35.4545C131.084 35.4545 130.408 35.1875 129.839 34.6534C129.283 34.1193 129.004 33.4773 129.004 32.7273C129.004 31.9773 129.283 31.3352 129.839 30.8011C130.408 30.267 131.084 30 131.868 30C132.652 30 133.322 30.267 133.879 30.8011C134.447 31.3352 134.732 31.9773 134.732 32.7273C134.732 33.4773 134.447 34.1193 133.879 34.6534C133.322 35.1875 132.652 35.4545 131.868 35.4545ZM140.463 66V62.9318L155.327 43.8409V43.5682H140.94V39.8182H160.509V43.0227L146.054 61.9773V62.25H160.986V66H140.463Z" fill="white"/>
<circle cx="132" cy="33" r="4" fill="#FD8321"/>
</svg>
